ffmpeg started on 2025-06-15 at 19:46:29
Report written to "D:\Convert\FFMetrics\reports\psnr_report-6.txt"
Log level: 32
Command line:
ffmpeg -hide_banner -nostdin -i "G:\\\xc0\xed\xe8\xec\xe5\\[\xd2\xee\xef]\\\xd1\xea\xe0\xe7\xe0\xed\xe8\xe5 \xee\xe1 \xee\xe1\xf0\xf3\xf7\xe0\xeb\xfc\xed\xfb\xf5 \xea\xee\xeb\xfc\xf6\xe0\xf5\\[DC] Kekkon Yubiwa Monogatari - 05_Telegram_HEVC.mkv" -i "G:\\\xc0\xed\xe8\xec\xe5\\[\xd2\xee\xef]\\\xd1\xea\xe0\xe7\xe0\xed\xe8\xe5 \xee\xe1 \xee\xe1\xf0\xf3\xf7\xe0\xeb\xfc\xed\xfb\xf5 \xea\xee\xeb\xfc\xf6\xe0\xf5\\[DC] Kekkon Yubiwa Monogatari - 05_Telegram.mp4" -lavfi "[0:v]settb=AVTB,setpts=PTS-STARTPTS,format=pix_fmts=yuv420p10,fps=24000/1001,scale=1920:1080:flags=bicubic[main];[1:v]settb=AVTB,setpts=PTS-STARTPTS,format=pix_fmts=yuv420p,fps=24000/1001,scale=1920:1080:flags=bicubic[ref];[main][ref]psnr=eof_action=endall:stats_file='D\\:/Convert/FFMetrics/logs/psnr_logfile-6.txt'" -f null -
Input #0, matroska,webm, from 'G:\Аниме\[Топ]\Сказание об обручальных кольцах\[DC] Kekkon Yubiwa Monogatari - 05_Telegram_HEVC.mkv':
  Metadata:
    COMPATIBLE_BRANDS: isomiso2avc1mp41
    MAJOR_BRAND     : isom
    MINOR_VERSION   : 512
    ENCODER         : Lavf61.7.100
  Duration: 00:23:47.12, start: -0.021000, bitrate: 1276 kb/s
  Stream #0:0: Video: hevc (Main 10), yuv420p10le(tv, bt709, progressive), 1920x1080 [SAR 1:1 DAR 16:9], 23.98 fps, 23.98 tbr, 1k tbn (default)
      Metadata:
        HANDLER_NAME    : VideoHandler
        VENDOR_ID       : [0][0][0][0]
        ENCODER         : Lavc61.19.100 libx265
        BPS             : 1078140
        DURATION        : 00:23:46.549708333
        NUMBER_OF_FRAMES: 34203
        NUMBER_OF_BYTES : 192252563
        _STATISTICS_WRITING_APP: mkvpropedit v66.0.0 ('Josie') 64-bit
        _STATISTICS_WRITING_DATE_UTC: 2025-06-15 14:41:50
        _STATISTICS_TAGS: BPS DURATION NUMBER_OF_FRAMES NUMBER_OF_BYTES
  Stream #0:1: Audio: aac (LC), 48000 Hz, stereo, fltp (default)
      Metadata:
        HANDLER_NAME    : SoundHandler
        VENDOR_ID       : [0][0][0][0]
        ENCODER         : Lavc61.19.100 aac
        BPS             : 194358
        DURATION        : 00:23:47.114000000
        NUMBER_OF_FRAMES: 66897
        NUMBER_OF_BYTES : 34671456
        _STATISTICS_WRITING_APP: mkvpropedit v66.0.0 ('Josie') 64-bit
        _STATISTICS_WRITING_DATE_UTC: 2025-06-15 14:41:50
        _STATISTICS_TAGS: BPS DURATION NUMBER_OF_FRAMES NUMBER_OF_BYTES
Input #1, mov,mp4,m4a,3gp,3g2,mj2, from 'G:\Аниме\[Топ]\Сказание об обручальных кольцах\[DC] Kekkon Yubiwa Monogatari - 05_Telegram.mp4':
  Metadata:
    major_brand     : isom
    minor_version   : 512
    compatible_brands: isomiso2avc1mp41
    encoder         : Lavf60.16.100
  Duration: 00:23:47.08, start: 0.000000, bitrate: 3903 kb/s
  Stream #1:0[0x1](und): Video: h264 (High) (avc1 / 0x31637661), yuv420p(tv, bt709, progressive), 1920x1080 [SAR 1:1 DAR 16:9], 3756 kb/s, 23.98 fps, 23.98 tbr, 24k tbn (default)
      Metadata:
        handler_name    : VideoHandler
        vendor_id       : [0][0][0][0]
        encoder         : Lavc60.31.102 h264_qsv
  Stream #1:1[0x2](und): Audio: aac (HE-AACv2) (mp4a / 0x6134706D), 48000 Hz, stereo, fltp, 144 kb/s (default)
      Metadata:
        handler_name    : SoundHandler
        vendor_id       : [0][0][0][0]
Stream mapping:
  Stream #0:0 (hevc) -> settb:default
  Stream #1:0 (h264) -> settb:default
  psnr:default -> Stream #0:0 (wrapped_avframe)
  Stream #0:1 -> #0:1 (aac (native) -> pcm_s16le (native))
Output #0, null, to 'pipe:':
  Metadata:
    COMPATIBLE_BRANDS: isomiso2avc1mp41
    MAJOR_BRAND     : isom
    MINOR_VERSION   : 512
    encoder         : Lavf61.7.100
  Stream #0:0: Video: wrapped_avframe, yuv420p10le(tv, bt709, progressive), 1920x1080 [SAR 1:1 DAR 16:9], q=2-31, 200 kb/s, 23.98 fps, 23.98 tbn
      Metadata:
        encoder         : Lavc61.19.100 wrapped_avframe
  Stream #0:1: Audio: pcm_s16le, 48000 Hz, stereo, s16, 1536 kb/s (default)
      Metadata:
        HANDLER_NAME    : SoundHandler
        VENDOR_ID       : [0][0][0][0]
        _STATISTICS_TAGS: BPS DURATION NUMBER_OF_FRAMES NUMBER_OF_BYTES
        BPS             : 194358
        DURATION        : 00:23:47.114000000
        NUMBER_OF_FRAMES: 66897
        NUMBER_OF_BYTES : 34671456
        _STATISTICS_WRITING_APP: mkvpropedit v66.0.0 ('Josie') 64-bit
        _STATISTICS_WRITING_DATE_UTC: 2025-06-15 14:41:50
        encoder         : Lavc61.19.100 pcm_s16le
frame=  178 fps=0.0 q=-0.0 size=N/A time=00:00:07.42 bitrate=N/A speed=14.4x    frame=  400 fps=384 q=-0.0 size=N/A time=00:00:16.68 bitrate=N/A speed=  16x    frame=  617 fps=399 q=-0.0 size=N/A time=00:00:25.73 bitrate=N/A speed=16.7x    frame=  855 fps=413 q=-0.0 size=N/A time=00:00:35.66 bitrate=N/A speed=17.2x    frame= 1078 fps=419 q=-0.0 size=N/A time=00:00:44.96 bitrate=N/A speed=17.5x    frame= 1329 fps=429 q=-0.0 size=N/A time=00:00:55.43 bitrate=N/A speed=17.9x    frame= 1586 fps=438 q=-0.0 size=N/A time=00:01:06.14 bitrate=N/A speed=18.3x    frame= 1832 fps=444 q=-0.0 size=N/A time=00:01:16.40 bitrate=N/A speed=18.5x    frame= 2074 fps=447 q=-0.0 size=N/A time=00:01:26.50 bitrate=N/A speed=18.6x    frame= 2320 fps=450 q=-0.0 size=N/A time=00:01:36.76 bitrate=N/A speed=18.8x    frame= 2575 fps=453 q=-0.0 size=N/A time=00:01:47.39 bitrate=N/A speed=18.9x    frame= 2789 fps=451 q=-0.0 size=N/A time=00:01:56.32 bitrate=N/A speed=18.8x    frame= 3019 fps=451 q=-0.0 size=N/A time=00:02:05.91 bitrate=N/A speed=18.8x    frame= 3238 fps=448 q=-0.0 size=N/A time=00:02:15.05 bitrate=N/A speed=18.7x    frame= 3443 fps=445 q=-0.0 size=N/A time=00:02:23.60 bitrate=N/A speed=18.6x    frame= 3646 fps=442 q=-0.0 size=N/A time=00:02:32.06 bitrate=N/A speed=18.4x    frame= 3897 fps=445 q=-0.0 size=N/A time=00:02:42.53 bitrate=N/A speed=18.5x    frame= 4076 fps=439 q=-0.0 size=N/A time=00:02:50.00 bitrate=N/A speed=18.3x    frame= 4248 fps=433 q=-0.0 size=N/A time=00:02:57.17 bitrate=N/A speed=18.1x    frame= 4457 fps=432 q=-0.0 size=N/A time=00:03:05.89 bitrate=N/A speed=  18x    frame= 4683 fps=433 q=-0.0 size=N/A time=00:03:15.32 bitrate=N/A speed=  18x    frame= 4900 fps=432 q=-0.0 size=N/A time=00:03:24.37 bitrate=N/A speed=  18x    frame= 5103 fps=430 q=-0.0 size=N/A time=00:03:32.83 bitrate=N/A speed=17.9x    frame= 5291 fps=427 q=-0.0 size=N/A time=00:03:40.67 bitrate=N/A speed=17.8x    frame= 5443 fps=422 q=-0.0 size=N/A time=00:03:47.01 bitrate=N/A speed=17.6x    frame= 5632 fps=420 q=-0.0 size=N/A time=00:03:54.90 bitrate=N/A speed=17.5x    frame= 5852 fps=420 q=-0.0 size=N/A time=00:04:04.07 bitrate=N/A speed=17.5x    frame= 6058 fps=420 q=-0.0 size=N/A time=00:04:12.66 bitrate=N/A speed=17.5x    frame= 6270 fps=419 q=-0.0 size=N/A time=00:04:21.51 bitrate=N/A speed=17.5x    frame= 6516 fps=421 q=-0.0 size=N/A time=00:04:31.77 bitrate=N/A speed=17.6x    frame= 6761 fps=423 q=-0.0 size=N/A time=00:04:41.99 bitrate=N/A speed=17.6x    frame= 7000 fps=424 q=-0.0 size=N/A time=00:04:51.95 bitrate=N/A speed=17.7x    frame= 7193 fps=423 q=-0.0 size=N/A time=00:05:00.00 bitrate=N/A speed=17.6x    frame= 7381 fps=421 q=-0.0 size=N/A time=00:05:07.84 bitrate=N/A speed=17.6x    frame= 7572 fps=420 q=-0.0 size=N/A time=00:05:15.81 bitrate=N/A speed=17.5x    frame= 7785 fps=419 q=-0.0 size=N/A time=00:05:24.69 bitrate=N/A speed=17.5x    frame= 7994 fps=419 q=-0.0 size=N/A time=00:05:33.41 bitrate=N/A speed=17.5x    frame= 8242 fps=421 q=-0.0 size=N/A time=00:05:43.76 bitrate=N/A speed=17.5x    frame= 8493 fps=422 q=-0.0 size=N/A time=00:05:54.22 bitrate=N/A speed=17.6x    frame= 8729 fps=423 q=-0.0 size=N/A time=00:06:04.07 bitrate=N/A speed=17.6x    frame= 8980 fps=425 q=-0.0 size=N/A time=00:06:14.54 bitrate=N/A speed=17.7x    frame= 9221 fps=426 q=-0.0 size=N/A time=00:06:24.59 bitrate=N/A speed=17.8x    frame= 9486 fps=428 q=-0.0 size=N/A time=00:06:35.64 bitrate=N/A speed=17.8x    frame= 9716 fps=428 q=-0.0 size=N/A time=00:06:45.23 bitrate=N/A speed=17.9x    frame= 9934 fps=428 q=-0.0 size=N/A time=00:06:54.33 bitrate=N/A speed=17.9x    frame=10166 fps=428 q=-0.0 size=N/A time=00:07:04.00 bitrate=N/A speed=17.9x    frame=10390 fps=429 q=-0.0 size=N/A time=00:07:13.34 bitrate=N/A speed=17.9x    frame=10593 fps=428 q=-0.0 size=N/A time=00:07:21.81 bitrate=N/A speed=17.8x    frame=10800 fps=427 q=-0.0 size=N/A time=00:07:30.45 bitrate=N/A speed=17.8x    frame=11003 fps=427 q=-0.0 size=N/A time=00:07:38.91 bitrate=N/A speed=17.8x    frame=11242 fps=427 q=-0.0 size=N/A time=00:07:48.88 bitrate=N/A speed=17.8x    frame=11457 fps=427 q=-0.0 size=N/A time=00:07:57.85 bitrate=N/A speed=17.8x    frame=11719 fps=429 q=-0.0 size=N/A time=00:08:08.77 bitrate=N/A speed=17.9x    frame=11976 fps=430 q=-0.0 size=N/A time=00:08:19.49 bitrate=N/A speed=17.9x    frame=12212 fps=430 q=-0.0 size=N/A time=00:08:29.34 bitrate=N/A speed=  18x    frame=12431 fps=430 q=-0.0 size=N/A time=00:08:38.47 bitrate=N/A speed=  18x    frame=12694 fps=432 q=-0.0 size=N/A time=00:08:49.44 bitrate=N/A speed=  18x    frame=12941 fps=433 q=-0.0 size=N/A time=00:08:59.74 bitrate=N/A speed=  18x    frame=13183 fps=433 q=-0.0 size=N/A time=00:09:09.84 bitrate=N/A speed=18.1x    frame=13419 fps=434 q=-0.0 size=N/A time=00:09:19.68 bitrate=N/A speed=18.1x    frame=13628 fps=433 q=-0.0 size=N/A time=00:09:28.40 bitrate=N/A speed=18.1x    frame=13858 fps=433 q=-0.0 size=N/A time=00:09:37.99 bitrate=N/A speed=18.1x    frame=14121 fps=435 q=-0.0 size=N/A time=00:09:48.96 bitrate=N/A speed=18.1x    frame=14342 fps=434 q=-0.0 size=N/A time=00:09:58.18 bitrate=N/A speed=18.1x    frame=14554 fps=434 q=-0.0 size=N/A time=00:10:07.02 bitrate=N/A speed=18.1x    frame=14781 fps=434 q=-0.0 size=N/A time=00:10:16.49 bitrate=N/A speed=18.1x    frame=15015 fps=434 q=-0.0 size=N/A time=00:10:26.25 bitrate=N/A speed=18.1x    frame=15255 fps=435 q=-0.0 size=N/A time=00:10:36.26 bitrate=N/A speed=18.1x    frame=15510 fps=435 q=-0.0 size=N/A time=00:10:46.89 bitrate=N/A speed=18.2x    frame=15732 fps=435 q=-0.0 size=N/A time=00:10:56.15 bitrate=N/A speed=18.2x    frame=15970 fps=436 q=-0.0 size=N/A time=00:11:06.08 bitrate=N/A speed=18.2x    frame=16194 fps=436 q=-0.0 size=N/A time=00:11:15.42 bitrate=N/A speed=18.2x    frame=16435 fps=436 q=-0.0 size=N/A time=00:11:25.47 bitrate=N/A speed=18.2x    frame=16662 fps=436 q=-0.0 size=N/A time=00:11:34.94 bitrate=N/A speed=18.2x    frame=16894 fps=437 q=-0.0 size=N/A time=00:11:44.62 bitrate=N/A speed=18.2x    frame=17128 fps=437 q=-0.0 size=N/A time=00:11:54.38 bitrate=N/A speed=18.2x    frame=17341 fps=436 q=-0.0 size=N/A time=00:12:03.26 bitrate=N/A speed=18.2x    frame=17534 fps=436 q=-0.0 size=N/A time=00:12:11.31 bitrate=N/A speed=18.2x    frame=17757 fps=435 q=-0.0 size=N/A time=00:12:20.61 bitrate=N/A speed=18.2x    frame=17963 fps=435 q=-0.0 size=N/A time=00:12:29.20 bitrate=N/A speed=18.1x    frame=18162 fps=434 q=-0.0 size=N/A time=00:12:37.50 bitrate=N/A speed=18.1x    frame=18350 fps=434 q=-0.0 size=N/A time=00:12:45.34 bitrate=N/A speed=18.1x    frame=18577 fps=434 q=-0.0 size=N/A time=00:12:54.81 bitrate=N/A speed=18.1x    frame=18822 fps=434 q=-0.0 size=N/A time=00:13:05.03 bitrate=N/A speed=18.1x    frame=19055 fps=434 q=-0.0 size=N/A time=00:13:14.75 bitrate=N/A speed=18.1x    frame=19274 fps=434 q=-0.0 size=N/A time=00:13:23.88 bitrate=N/A speed=18.1x    frame=19524 fps=435 q=-0.0 size=N/A time=00:13:34.31 bitrate=N/A speed=18.1x    frame=19762 fps=435 q=-0.0 size=N/A time=00:13:44.24 bitrate=N/A speed=18.1x    frame=19977 fps=435 q=-0.0 size=N/A time=00:13:53.20 bitrate=N/A speed=18.1x    frame=20199 fps=435 q=-0.0 size=N/A time=00:14:02.46 bitrate=N/A speed=18.1x    frame=20424 fps=435 q=-0.0 size=N/A time=00:14:11.85 bitrate=N/A speed=18.1x    frame=20668 fps=435 q=-0.0 size=N/A time=00:14:22.02 bitrate=N/A speed=18.2x    frame=20903 fps=436 q=-0.0 size=N/A time=00:14:31.82 bitrate=N/A speed=18.2x    frame=21150 fps=436 q=-0.0 size=N/A time=00:14:42.13 bitrate=N/A speed=18.2x    frame=21388 fps=436 q=-0.0 size=N/A time=00:14:52.05 bitrate=N/A speed=18.2x    frame=21656 fps=437 q=-0.0 size=N/A time=00:15:03.23 bitrate=N/A speed=18.2x    frame=21898 fps=438 q=-0.0 size=N/A time=00:15:13.32 bitrate=N/A speed=18.2x    frame=22156 fps=438 q=-0.0 size=N/A time=00:15:24.08 bitrate=N/A speed=18.3x    frame=22378 fps=438 q=-0.0 size=N/A time=00:15:33.34 bitrate=N/A speed=18.3x    frame=22609 fps=438 q=-0.0 size=N/A time=00:15:42.98 bitrate=N/A speed=18.3x    frame=22851 fps=439 q=-0.0 size=N/A time=00:15:53.07 bitrate=N/A speed=18.3x    frame=23068 fps=438 q=-0.0 size=N/A time=00:16:02.12 bitrate=N/A speed=18.3x    frame=23304 fps=438 q=-0.0 size=N/A time=00:16:11.97 bitrate=N/A speed=18.3x    frame=23542 fps=439 q=-0.0 size=N/A time=00:16:21.89 bitrate=N/A speed=18.3x    frame=23798 fps=439 q=-0.0 size=N/A time=00:16:32.57 bitrate=N/A speed=18.3x    frame=24034 fps=439 q=-0.0 size=N/A time=00:16:42.41 bitrate=N/A speed=18.3x    frame=24289 fps=440 q=-0.0 size=N/A time=00:16:53.05 bitrate=N/A speed=18.3x    frame=24534 fps=440 q=-0.0 size=N/A time=00:17:03.27 bitrate=N/A speed=18.4x    frame=24803 fps=441 q=-0.0 size=N/A time=00:17:14.49 bitrate=N/A speed=18.4x    frame=25069 fps=442 q=-0.0 size=N/A time=00:17:25.58 bitrate=N/A speed=18.4x    frame=25313 fps=442 q=-0.0 size=N/A time=00:17:35.76 bitrate=N/A speed=18.4x    frame=25548 fps=442 q=-0.0 size=N/A time=00:17:45.56 bitrate=N/A speed=18.4x    frame=25805 fps=443 q=-0.0 size=N/A time=00:17:56.32 bitrate=N/A speed=18.5x    frame=26030 fps=443 q=-0.0 size=N/A time=00:18:05.66 bitrate=N/A speed=18.5x    frame=26278 fps=443 q=-0.0 size=N/A time=00:18:16.01 bitrate=N/A speed=18.5x    frame=26514 fps=443 q=-0.0 size=N/A time=00:18:25.85 bitrate=N/A speed=18.5x    frame=26765 fps=443 q=-0.0 size=N/A time=00:18:36.32 bitrate=N/A speed=18.5x    frame=27002 fps=444 q=-0.0 size=N/A time=00:18:46.20 bitrate=N/A speed=18.5x    frame=27254 fps=444 q=-0.0 size=N/A time=00:18:56.71 bitrate=N/A speed=18.5x    frame=27495 fps=444 q=-0.0 size=N/A time=00:19:06.77 bitrate=N/A speed=18.5x    frame=27744 fps=444 q=-0.0 size=N/A time=00:19:17.15 bitrate=N/A speed=18.5x    frame=27966 fps=444 q=-0.0 size=N/A time=00:19:26.41 bitrate=N/A speed=18.5x    frame=28194 fps=444 q=-0.0 size=N/A time=00:19:35.92 bitrate=N/A speed=18.5x    frame=28390 fps=444 q=-0.0 size=N/A time=00:19:44.09 bitrate=N/A speed=18.5x    frame=28637 fps=444 q=-0.0 size=N/A time=00:19:54.44 bitrate=N/A speed=18.5x    frame=28872 fps=444 q=-0.0 size=N/A time=00:20:04.20 bitrate=N/A speed=18.5x    frame=29093 fps=444 q=-0.0 size=N/A time=00:20:13.42 bitrate=N/A speed=18.5x    frame=29347 fps=444 q=-0.0 size=N/A time=00:20:24.01 bitrate=N/A speed=18.5x    frame=29585 fps=445 q=-0.0 size=N/A time=00:20:33.94 bitrate=N/A speed=18.5x    frame=29843 fps=445 q=-0.0 size=N/A time=00:20:44.70 bitrate=N/A speed=18.6x    frame=30103 fps=445 q=-0.0 size=N/A time=00:20:55.54 bitrate=N/A speed=18.6x    frame=30358 fps=446 q=-0.0 size=N/A time=00:21:06.18 bitrate=N/A speed=18.6x    frame=30600 fps=446 q=-0.0 size=N/A time=00:21:16.27 bitrate=N/A speed=18.6x    frame=30846 fps=446 q=-0.0 size=N/A time=00:21:26.53 bitrate=N/A speed=18.6x    frame=31107 fps=447 q=-0.0 size=N/A time=00:21:37.42 bitrate=N/A speed=18.6x    frame=31352 fps=447 q=-0.0 size=N/A time=00:21:47.63 bitrate=N/A speed=18.6x    frame=31586 fps=447 q=-0.0 size=N/A time=00:21:57.39 bitrate=N/A speed=18.6x    frame=31842 fps=447 q=-0.0 size=N/A time=00:22:08.07 bitrate=N/A speed=18.7x    frame=32070 fps=447 q=-0.0 size=N/A time=00:22:17.58 bitrate=N/A speed=18.7x    frame=32262 fps=447 q=-0.0 size=N/A time=00:22:25.59 bitrate=N/A speed=18.6x    frame=32464 fps=446 q=-0.0 size=N/A time=00:22:34.01 bitrate=N/A speed=18.6x    frame=32672 fps=446 q=-0.0 size=N/A time=00:22:42.69 bitrate=N/A speed=18.6x    frame=32875 fps=446 q=-0.0 size=N/A time=00:22:51.16 bitrate=N/A speed=18.6x    frame=33100 fps=446 q=-0.0 size=N/A time=00:23:00.54 bitrate=N/A speed=18.6x    frame=33299 fps=445 q=-0.0 size=N/A time=00:23:08.84 bitrate=N/A speed=18.6x    frame=33519 fps=445 q=-0.0 size=N/A time=00:23:18.02 bitrate=N/A speed=18.6x    frame=33703 fps=444 q=-0.0 size=N/A time=00:23:25.69 bitrate=N/A speed=18.5x    frame=33890 fps=444 q=-0.0 size=N/A time=00:23:33.49 bitrate=N/A speed=18.5x    frame=34091 fps=444 q=-0.0 size=N/A time=00:23:41.87 bitrate=N/A speed=18.5x    [Parsed_psnr_10 @ 000001dcc304de80] PSNR y:48.049203 u:49.970683 v:50.146530 average:48.621317 min:43.277598 max:inf
[out#0/null @ 000001dcc0d5ca80] video:14697KiB audio:267588KiB subtitle:0KiB other streams:0KiB global headers:0KiB muxing overhead: unknown
frame=34203 fps=443 q=-0.0 Lsize=N/A time=00:23:46.55 bitrate=N/A speed=18.5x    
